# xmcd
#
# Track frame offsets: 
#        150
#        16435
#        34497
#        49234
#        64733
#        80220
#        99837
#        115600
#        120488
#        139129
#        153843
#        165549
#        185139
#
# Disc length: 2681 seconds
#
# Revision: 3
# Processed by: cddbd v1.5.2PL0 Copyright (c) Steve Scherf et al.
# Submitted via: ExactAudioCopy v1.0b3
#
DISCID=ac0a770d
DTITLE=Hocus Pocus - 73 Touches
DYEAR=2005
DGENRE=Hip-Hop
TTITLE0=Hocus Pocus ft. Ty - Onandon part 2
TTITLE1=Pascal
TTITLE2=Comment on faisait ?
TTITLE3=J'attends
TTITLE4=Hocus Pocus ft. C2C - Feel good
TTITLE5=J'aimerais (ijkl…nop)
TTITLE6=Faits divers
TTITLE7=Swingin' (interlude)
TTITLE8=Zoo
TTITLE9=Géométrie
TTITLE10=Brouillon
TTITLE11=Hocus Pocus ft. The Procussions - Hip Hop ?
TTITLE12=73 Touches
EXTD=
EXTT0=
EXTT1=
EXTT2=
EXTT3=
EXTT4=
EXTT5=
EXTT6=
EXTT7=
EXTT8=
EXTT9=
EXTT10=
EXTT11=
EXTT12=
PLAYORDER=
